<?xml version="1.0" encoding="UTF-8"?>
<svg id="Layer_1" data-name="Layer 1" xmlns="http://www.w3.org/2000/svg" viewBox="0 0 787.32 8">
  <rect x=".06" y="-.56" width="787.57" height="9.19" fill="#fff"/>
  <polygon points="142.04 8.03 119.85 8.03 129.66 .03 151.85 .03 142.04 8.03" fill="#092645"/>
  <polygon points="109.27 8.03 87.07 8.03 96.88 .03 119.07 .03 109.27 8.03" fill="#092645"/>
  <polygon points="76.49 8.03 54.3 8.03 64.1 .03 86.3 .03 76.49 8.03" fill="#092645"/>
  <polygon points="44.93 8.03 22.73 8.03 32.54 .03 54.73 .03 44.93 8.03" fill="#092645"/>
  <polygon points="12.15 8.03 -10.05 8.03 -.24 .03 21.95 .03 12.15 8.03" fill="#092645"/>
  <polygon points="240.38 8.03 218.19 8.03 227.99 .03 250.19 .03 240.38 8.03" fill="#092645"/>
  <polygon points="207.6 8.03 185.41 8.03 195.22 .03 217.41 .03 207.6 8.03" fill="#092645"/>
  <polygon points="174.82 8.03 152.63 8.03 162.44 .03 184.63 .03 174.82 8.03" fill="#092645"/>
  <polygon points="338.71 8.03 316.52 8.03 326.33 .03 348.52 .03 338.71 8.03" fill="#092645"/>
  <polygon points="305.93 8.03 283.74 8.03 293.55 .03 315.74 .03 305.93 8.03" fill="#092645"/>
  <polygon points="404.27 8.03 382.08 8.03 391.88 .03 414.08 .03 404.27 8.03" fill="#092645"/>
  <polygon points="371.49 8.03 349.3 8.03 359.11 .03 381.3 .03 371.49 8.03" fill="#092645"/>
  <polygon points="273.16 8.03 250.96 8.03 260.77 .03 282.96 .03 273.16 8.03" fill="#092645"/>
  <polygon points="503.58 8.03 481.38 8.03 491.19 .03 513.38 .03 503.58 8.03" fill="#092645"/>
  <polygon points="470.8 8.03 448.61 8.03 458.41 .03 480.61 .03 470.8 8.03" fill="#092645"/>
  <polygon points="438.02 8.03 415.83 8.03 425.63 .03 447.83 .03 438.02 8.03" fill="#092645"/>
  <polygon points="601.91 8.03 579.72 8.03 589.52 .03 611.72 .03 601.91 8.03" fill="#092645"/>
  <polygon points="569.13 8.03 546.94 8.03 556.75 .03 578.94 .03 569.13 8.03" fill="#092645"/>
  <polygon points="536.35 8.03 514.16 8.03 523.97 .03 546.16 .03 536.35 8.03" fill="#092645"/>
  <polygon points="700.24 8.03 678.05 8.03 687.86 .03 710.05 .03 700.24 8.03" fill="#092645"/>
  <polygon points="667.47 8.03 645.27 8.03 655.08 .03 677.27 .03 667.47 8.03" fill="#092645"/>
  <polygon points="765.8 8.03 743.61 8.03 753.42 .03 775.61 .03 765.8 8.03" fill="#092645"/>
  <polygon points="800.27 8.03 778.08 8.03 787.88 .03 810.08 .03 800.27 8.03" fill="#092645"/>
  <polygon points="733.02 8.03 710.83 8.03 720.64 .03 742.83 .03 733.02 8.03" fill="#092645"/>
  <polygon points="634.69 8.03 612.5 8.03 622.3 .03 644.5 .03 634.69 8.03" fill="#092645"/>
</svg>