<?xml version="1.0" encoding="UTF-8"?>
<svg id="Layer_1" data-name="Layer 1" xmlns="http://www.w3.org/2000/svg" viewBox="0 0 340 8">
  <polygon points="77.62 8.05 55.43 8.05 65.23 .05 87.43 .05 77.62 8.05" fill="#092645"/>
  <polygon points="44.84 8.05 22.65 8.05 32.46 .05 54.65 .05 44.84 8.05" fill="#092645"/>
  <polygon points="12.06 8.05 -10.13 8.05 -.32 .05 21.87 .05 12.06 8.05" fill="#092645"/>
  <polygon points="175.95 8.05 153.76 8.05 163.57 .05 185.76 .05 175.95 8.05" fill="#092645"/>
  <polygon points="143.17 8.05 120.98 8.05 130.79 .05 152.98 .05 143.17 8.05" fill="#092645"/>
  <polygon points="110.4 8.05 88.2 8.05 98.01 .05 120.2 .05 110.4 8.05" fill="#092645"/>
  <polygon points="274.29 8.05 252.09 8.05 261.9 .05 284.09 .05 274.29 8.05" fill="#092645"/>
  <polygon points="241.51 8.05 219.32 8.05 229.12 .05 251.32 .05 241.51 8.05" fill="#092645"/>
  <polygon points="339.84 8.05 317.65 8.05 327.46 .05 349.65 .05 339.84 8.05" fill="#092645"/>
  <polygon points="307.06 8.05 284.87 8.05 294.68 .05 316.87 .05 307.06 8.05" fill="#092645"/>
  <polygon points="208.73 8.05 186.54 8.05 196.35 .05 218.54 .05 208.73 8.05" fill="#092645"/>
</svg>